<?xml version="1.0" encoding="UTF-8"?>
<svg width="478.4mm" height="296.4mm" version="1.1" viewBox="0 0 1695.1346 1050.2363" xmlns="http://www.w3.org/2000/svg">
 <g transform="translate(548.51 707.58)">
  <g fill-rule="evenodd">
   <rect x="-548.51" y="-707.58" width="1695.1" height="1050.2" ry="3.7811" fill="#e0f7fa"/>
   <rect x="-516.74" y="-707.58" width="14.375" height="985.08" ry="3.5466" fill="#bbdefb"/>
   <rect x="-125.94" y="-707.58" width="14.375" height="968.23" ry="3.4859" fill="#bbdefb"/>
   <rect x="268.04" y="-707.58" width="14.375" height="969.36" ry="3.4899" fill="#bbdefb"/>
   <rect x="665.19" y="-707.58" width="14.375" height="973.85" ry="3.5061" fill="#bbdefb"/>
   <rect x="1062.3" y="-707.58" width="14.375" height="971.6" ry="3.498" fill="#bbdefb"/>
   <circle cx="-509.64" cy="172.57" r="20.276" fill="#9ccc65"/>
   <rect transform="matrix(.14369 .98962 -.98962 .14369 0 0)" x="-231.19" y="-1118.3" width="15.886" height="418.37" ry="7.0196" fill="#7cb342"/>
   <rect transform="matrix(.62597 .77985 -.77985 .62597 0 0)" x="163.98" y="-733.13" width="15.886" height="532.69" ry="7.9431" fill="#7cb342"/>
   <circle cx="671.37" cy="-319.51" r="20.276" fill="#558b2f"/>
   <circle cx="1068.5" cy="-381.94" r="20.276" fill="#558b2f"/>
   <rect transform="matrix(.58784 .80897 -.80897 .58784 0 0)" x="-165.15" y="37.525" width="15.886" height="473.41" ry="7.9431" fill="#fff176"/>
   <circle cx="-509.64" cy="172.57" r="20.276" fill="#ffa726"/>
   <rect transform="matrix(.31239 .94995 -.94995 .31239 0 0)" x="-144.67" y="-337.76" width="14.553" height="433.69" ry="7.2767" fill="#fff176"/>
   <rect transform="matrix(.029308 .99957 -.99957 .029308 0 0)" x="-231.54" y="-680.22" width="15.886" height="393.98" ry="6.6104" fill="#fff176"/>
   <rect transform="matrix(.58164 .81345 -.81345 .58164 0 0)" x="185.77" y="-1162.6" width="15.886" height="473.41" ry="7.9431" fill="#fff176"/>
   <rect transform="matrix(.3405 .94024 -.94024 .3405 0 0)" x="-18.216" y="119.63" width="15.886" height="418.37" ry="7.0196" fill="#7cb342"/>
   <path d="m-277.28-161.22c-4.3162 6e-3 -8.6924 0.6578-13.136 2.0472l-0.13666-1.4175c-38.895-4.6714-49.655 36.602-65.385 69.756-9.2381 39.59-20.066 49.927-19.647 75.366 6.986 19.693 16.076 31.751 26.29 41.391l-57.793 13.474c-18.336 4.4138-27.348 18.163-28.211 40.072-6.0924 33.857 4.7231 63.753 2.875 97.237 1.2668 2.0111 3.4127 4.0402 6.1385 6.0403 0.22088 1.0653 1.0935 1.8779 2.1578 2.0196 0.67341 4.8025 2.3175 12.804 4.0053 20.504l0.48375 34.488c0.0254 1.812 1.5053 3.2505 3.3174 3.2252l4.1174-0.0583c2.2651 13.431 4.3434 25.613 11.422 37.777 7.0761 3.3318 14.055 4.9412 20.784 5.211-0.0463 3.3299-0.21113 9.1949-0.453 16.478-0.5524 16.638-1.3179 36.437-1.4667 40.265h216.97c-1.1981-6.5197-11.318-32.954-11.093-45.744 0.19925-11.335-7.4456-12.475-7.0615-23.768-1.5712-11.859-3.0675-21.138-3.09-26.465l0.28874-4.463c-0.12353-0.83242-0.26302-1.647-0.41313-2.4527l0.26719-3e-3 0.19658 1.6832-0.0491 0.77251c2.6761 18.034-0.37988 41.841 16.283 46.316 6.9133-5.1186 36.124-36.687 45.624-49.641l12.18-0.17048c1.812-0.0254 3.2505-1.5053 3.2251-3.3173l-1.0013-71.579 9.8244-3.6521c1.1984-0.44554 1.8048-1.7687 1.3592-2.9672l-1.8936-5.0927c-0.44561-1.1984-1.7688-1.8032-2.9672-1.3576l-6.4734 2.4066-0.0153-1.1856 9.2393-3.4356c1.1984-0.44554 1.8047-1.7687 1.3592-2.9672l-1.8936-5.0912c-0.44554-1.1984-1.7688-1.8047-2.9672-1.3592l-5.8882 2.1885-0.0123-0.88923 8.7479-3.2513c1.1984-0.44554 1.8048-1.7687 1.3592-2.9672l-1.8921-5.0927c-0.44554-1.1984-1.7703-1.8047-2.9687-1.3592l-5.3952 2.0058-0.0123-0.88769 9.0412-3.3618c1.1984-0.44554 1.8032-1.7687 1.3577-2.9672l-1.8921-5.0911c-0.44553-1.1984-1.7687-1.8047-2.9671-1.3592l-5.6886 2.1148-0.4162-29.701c-0.0254-1.812-1.5038-3.2505-3.3158-3.2252l-33.402 0.46688c-1.4783-11.184-3.6347-22.258-6.7038-29.027-7.4078-7.1983-11.55-12.429-19.807-15.238-18.528-6.3032-36.825-4.7358-58.018-12.532l4.5199-5.0251c8.9536-6.7347 9.9988-5.2639 20.879-1.4022-10.608-60.175 12.532-113.12-28.415-165.66-10.6-8.2992-21.383-14.598-32.523-17.01-3.2493-0.70365-6.5284-1.0763-9.8429-1.072zm-9.6156 38.521c0.21498 0.30448 0.43484 0.60525 0.65886 0.90305-0.46197 0.18952-0.91811 0.38391-1.3699 0.58206 0.25745-0.29266 0.50891-0.58604 0.76942-0.87848l-0.0583-0.60663z" fill="#9fdfe7" fill-opacity=".44693"/>
   <rect transform="matrix(.078435 .99692 -.99692 .078435 0 0)" x="17.926" y="-276.67" width="15.886" height="392.53" ry="6.5861" fill="#7cb342"/>
   <circle cx="-119.45" cy="-106.63" r="20.276" fill="#ffa726"/>
   <circle cx="274.37" cy="-232.99" r="20.276" fill="#ffa726"/>
   <circle cx="673.34" cy="-244.35" r="20.276" fill="#ffa726"/>
   <circle cx="1069" cy="-529.35" r="20.276" fill="#ffa726"/>
   <circle cx="-117.2" cy="30.493" r="20.276" fill="#558b2f"/>
   <circle cx="275.03" cy="-1.9959" r="20.276" fill="#558b2f"/>
   <rect transform="rotate(90)" x="252.94" y="-1143.8" width="14.375" height="1667.8" ry="6.0045" fill="#bbdefb"/>
   <ellipse cx="312.03" cy="303.18" rx="23.525" ry="18.66" fill="#ffa726"/>
   <rect x="348.4" y="291.11" width="289.73" height="13.965" ry="6.9824" fill="#fff"/>
   <rect x="351.18" y="310.31" width="224.93" height="13.965" ry="6.9824" fill="#fff"/>
   <ellipse cx="715.23" cy="303.18" rx="23.525" ry="18.66" fill="#558b2f"/>
   <rect x="751.6" y="291.11" width="289.73" height="13.965" ry="6.9824" fill="#fff"/>
   <rect x="754.38" y="310.31" width="224.93" height="13.965" ry="6.9824" fill="#fff"/>
   <path d="m-269.32-28.662-4.1968 63.564-23.67 11.255 17.03 79.597 53.923 43.294 55.195-51.21 16.178-76.201-46.96-13.686 6.9141-53.869-30.758 32.933z" fill="#fad59d"/>
   <path d="m-221.98 24.07c13.119-0.18317 19.466-14.74 27.398-24.406 3.6803-5.0917 5.7942-10.178 8.8874-16.204 3.6187-7.8679 6.4098-15.629 8.3202-24.678 0.74852-6.0153 1.6985-14.329-2.3767-24.179-4.9763-27.171-19.455-50.516-50.366-53.986-24.374 6.6227-36.928 23.218-42.908 46.06-1.7131 7.477-3.295 12.743-4.9188 18.713-1.065 13.613 1.6578 25.845 6.6904 39.728 5.3686 7.6263 9.6067 16.049 16.552 22.248 9.5321 6.8141 18.862 16.425 32.722 16.703z" fill="#f4cd92"/>
   <path d="m-241.71-160.59c-38.895-4.6714-49.653 36.602-65.384 69.755-9.2381 39.59-20.066 49.927-19.648 75.366 14.817 41.768 39.089 49.2 63.501 72.036-1.1516-5.66-2.5609-11.528-4.284-17.644-1.9254-12.063-0.96678-47.264-1.3488-59.214-0.41321-12.926-8.7991-14.584-6.4587-27.308 4.672-25.401 15.813-50.327 37.339-74.493z" fill="#212121"/>
   <path d="m-284.85 9.8846-1.8787 17.488 58.768 52.831c0.38642-9.167-3.4981-20.38-14.538-29.614-16.966-11.777-29.519-26.55-42.351-40.705z" fill="#424242"/>
   <path d="m-190.27 19.469 9.3407 19.791-49.908 40.704c-0.64062-9.1527 4.3202-23.732 13.711-30.006 16.633-12.243 14.422-15.984 26.857-30.489z" fill="#424242"/>
   <rect transform="matrix(.99782 -.066003 .095342 .99544 0 0)" x="-393.35" y="117.48" width="10.625" height="42.23" ry="2.4815" fill="#fad59d"/>
   <path d="m-285.84 22.513-72.409 16.88c-18.336 4.4138-27.349 18.163-28.212 40.072-6.0924 33.857 4.7232 63.753 2.8752 97.238 6.7721 10.751 38.664 22.011 50.003 26.657 6.9658 13.603 0.0996-0.36263 0.31972 19.304 0.11363 10.15 2.1769 53.287 2.1341 61.801-0.0149 2.9278-0.21411 9.8028-0.48374 17.922-0.5524 16.638-1.3188 36.437-1.4677 40.265h216.97c-1.1982-6.5197-11.317-32.954-11.092-45.744 0.19927-11.335-7.4465-12.474-7.0624-23.768-1.5712-11.859-3.0666-21.137-3.089-26.464l0.28856-4.4633c-0.69069-4.6544-1.7569-8.9303-3.6495-12.383-6.9494-16.686-3.9056-33.497-3.4772-49.877l-2.7818-23.838c2.5796 7.7951 2.9929 15.765 2.7818 23.838l7.1766 61.488-0.0499 0.77226c2.6761 18.034-0.3787 41.841 16.284 46.317 7.7482-5.7367 43.527-44.72 48.145-53.458-1.6146-16.579 15.448-30.173 9.9189-46.856-6.795-22.647-22.763-47.264-33.099-70.005-0.41942-12.799-2.8458-47.007-9.4144-61.494-7.4077-7.1983-11.549-12.428-19.807-15.237-22.034-7.496-43.74-3.8552-70.381-18.077l-20.676 43.626-13.458 10.756-8.6235-8.0381c-18.519-15.329-37.616-30.567-47.66-47.232z" fill="#212121"/>
   <path d="m-218.6-160.15c-8.665-1.8764-17.546-1.4022-26.725 2.3119 6.443 6.5617-3.2153 22.916 3.0761 29.537 6.0184 6.3342 28.003 2.9304 33.443 9.4929 18.526 22.349 28.762 46.638 29.591 75.971-22.804 28.112-22.253 81.17-35.937 107.47l36.611-40.711c8.9536-6.7347 9.999-5.2641 20.879-1.4024-10.608-60.175 12.532-113.12-28.415-165.66-10.6-8.2992-21.383-14.598-32.523-17.01z" fill="#212121"/>
   <path d="m-221.21 18.93c13.119-0.18317 19.466-14.74 27.398-24.406 3.6803-5.0917 5.7942-10.178 8.8874-16.204 3.6187-7.8679 6.4098-15.629 8.3202-24.678 0.74852-6.0153 1.6985-14.329-2.3767-24.179-4.9762-27.171-19.455-50.516-50.366-53.986-24.374 6.6227-36.928 23.218-42.909 46.06-1.7131 7.477-3.295 12.743-4.9188 18.713-1.065 13.613 1.6578 25.845 6.6904 39.728 5.3686 7.6263 9.6067 16.049 16.552 22.248 9.5321 6.814 18.862 16.425 32.722 16.703z" fill="#ffe0b2"/>
   <path d="m-239.38-88.937 6.1402 7.0635c-8.0949-1.104-16.154-2.3665-24.707-1.4588-6.7323 1.0192-12.245 3.8032-17.19 7.409l2.7983-4.4297c10.649-8.4243 21.825-8.1484 32.958-8.5839z" fill="#212121"/>
   <path d="m-234.66-66.044c-10.097-0.06015-22.597 2.4207-28.47-1.3256 5.5535-6.6562 19.215-6.6025 21.533-6.1575 5.0856 2.2755 6.3802 4.8501 6.9363 7.4831z" fill="#fff"/>
   <path d="m-207.87-65.521c1.7325-3.1263 3.8536-6.0166 7.8518-7.7666 6.0846-0.33197 12.017 0.0024 16.619 6.1774-4.2997 2.8077-16.112 1.1788-24.471 1.5891z" fill="#fff"/>
   <path d="m-240.29-126.29c8.0217 14.784 25.833 22.421 45.233 27.741 14.484 3.6667 9.2521 24.024 21.78 31.354-5.5835-52.485-37.701-62.001-67.014-59.096z" fill="#212121"/>
   <path d="m-273.87-31.304c-4.605 2.4219-7.0695-2.311-10.287-4.5254-3.2748-9.671-8.0297-19.262-6.4608-29.195 0.43053-4.5313 2.3994-7.6824 8.2365-7.3633 3.3891 2.2302 5.4739 4.4603 7.1195 6.6905-1.6373 11.311-2.1325 22.79 1.3922 34.394z" fill="#fad59d"/>
   <path d="m-246.61-73.653c2.5567 2.3755 2.5681 5.3727 1.9871 8.0121-2.9646 0.17556-7.3255 0.46067-10.214 0.303-1.8056-1.918-2.109-4.3902-2.0228-6.1522 3.3299-1.5145 7.3018-1.6679 10.25-2.1629z" fill="#212121"/>
   <circle transform="matrix(.97499 .22225 -.22225 .97499 0 0)" cx="-258.73" cy="-13.477" r="1.7572" fill="#fff"/>
   <path d="m-200.01-73.25c-1.9446 0.98782-0.93622 8.2688 0.58399 7.6805l8.7736 0.09959c1.4572-2.7293 1.1349-5.0034-0.24885-7.0069-2.9349-0.89592-6.0093-0.91318-9.1087-0.77322z" fill="#212121"/>
   <circle transform="matrix(.97499 .22225 -.22225 .97499 0 0)" cx="-203.97" cy="-25.403" r="1.5699" fill="#fff"/>
   <path d="m-240.99-20.549 9.1703 7.8287 10.221 1.5847 9.6627-1.5235 10.119-9.3097-2.2195 0.15554-38.794-0.79488z" fill="#a00"/>
   <path d="m-240.68-23.235c12.566-1.3961 26.647-1.6135 37.291 0.29283-0.80709 1.1875-2.4261 1.5995-3.815 3.217-1.4026 0.83189-5.0547 1.6886-8.0372 2.5871l-0.92826 1.1298c-2.9574 0.1226-5.9939 0.11921-9.2589-0.24755l-1.7575-1.4439c-4.1277-0.71221-8.1185-1.7582-11.93-3.2412z" fill="#fff"/>
   <path d="m-242.83-22.717-0.78452-0.88665c-0.28655-0.59228 15.262-2.4158 20.146-1.8645 2.8392 1.1426 4.112 1.1481 4.112 1.1481 1.402-0.18634 2.6049-0.79381 3.7514-1.2 5.5638 0.01352 11.55 1.286 14.74 2.737l-2.0257 0.808c-2.8788-0.89425-8.29-1.9823-12.19-1.6864-1.1077 0.27445-3.1053 1.075-4.389 1.1073-1.5725-0.02933-2.7973-0.67125-4.2829-0.9763-7.1618-0.30568-11.858 0.2974-18.48 1.212z" fill="#f55"/>
   <path d="m-243.76-22.904c12.275 8.8144 24.996 14.938 40.894 1.8393l0.56091-0.74805 0.96825-0.82012-0.0985 0.84034c-2.9826 3.9933-6.577 11.022-8.9484 11.977-6.6784 2.4287-13.614 1.9298-20.447 0.10903-4.6944-3.6081-8.6874-8.4088-12.929-13.198z" fill="#faa"/>
   <path d="m-375.62 181.37c0 6.7642 9.0188 44.343 9.0188 44.343 4.6367 20.709 4.6778 37.838 14.656 54.986 13.698 6.4498 27.042 6.4913 38.882 2.7217l-17.462-56.956-4.5094-45.095z" fill="#212121"/>
   <rect transform="matrix(.9999 -.013998 .013998 .9999 0 0)" x="-374.12" y="84.356" width="311.07" height="153.46" ry="3.2711" fill="#6d4c41"/>
   <rect transform="matrix(.9999 -.013998 .013998 .9999 0 0)" x="-363.19" y="93.075" width="289.23" height="136.31" ry="2.9056" fill="#fff"/>
   <g transform="matrix(.78626 -.010028 .0098583 .79979 552.96 527.25)">
    <rect x="-1157.1" y="-551.47" width="368.86" height="171.59" ry=".61776" fill="#e0f7fa"/>
    <path d="m-805.13-521.81-54.674 29.673 54.674-5.9346z" fill="#fff59d"/>
    <path d="m-1063.6-452.62-85.358 45.709 85.358-23.739 85.863-4.7982 64.145-39.648-64.902 1.2627z" fill="#fff59d"/>
    <path d="m-862.08-491.76c-0.6313 0.12627-29.042 2.6516-29.168 3.283-0.1263 0.63135-21.971 13.511-21.971 13.511l21.971-0.3788z" fill="#aed581"/>
    <path d="m-860.06-492.77-30.81 17.93-23.486-0.50507-0.505 82.075 57.831-0.50508z" fill="#aed581"/>
    <path d="m-860.36-492.99v98.929l56.071 0.35714-1.0714-105.36z" fill="#aed581"/>
    <path d="m-913.21-475.14v81.071h-236.07l1.4286-13.571 85.714-23.214 85-4.6429z" fill="#aed581"/>
    <rect x="-1150.2" y="-551.47" width="3.128" height="160.94" ry=".57943" fill="#bbdefb"/>
    <rect x="-1065.2" y="-551.47" width="3.128" height="98.356" ry=".35411" fill="#bbdefb"/>
    <rect x="-979.43" y="-551.47" width="3.128" height="77.867" ry=".28034" fill="#bbdefb"/>
    <rect x="-893.01" y="-551.47" width="3.128" height="64.464" ry=".23209" fill="#bbdefb"/>
    <rect x="-806.59" y="-551.47" width="3.128" height="158.74" ry=".5715" fill="#bbdefb"/>
    <ellipse cx="-1148.7" cy="-407.67" rx="4.4121" ry="3.3127" fill="#9ccc65"/>
    <path d="m-891.76-475.85-21.213 1.0102-3.6618 2.7779 26.011-1.0102 36.871-19.698-6.4397 0.50507z" fill="#9ccc65"/>
    <rect transform="matrix(.18986 .98181 -.99411 .10837 0 0)" x="-585.7" y="697.07" width="2.6161" height="90.624" ry="1.5205" fill="#7cb342"/>
    <rect transform="matrix(.7303 .68313 -.85648 .51618 0 0)" x="-914.25" y="260.76" width="2.963" height="105.54" ry="1.5738" fill="#7cb342"/>
    <ellipse cx="-891.67" cy="-488.07" rx="4.4121" ry="3.3127" fill="#558b2f"/>
    <ellipse cx="-805.26" cy="-498.27" rx="4.4121" ry="3.3127" fill="#558b2f"/>
    <rect transform="matrix(.69544 .71858 -.87784 .47895 0 0)" x="-942.99" y="466.7" width="2.922" height="94.931" ry="1.5928" fill="#ffe082"/>
    <ellipse cx="-1148.7" cy="-407.67" rx="4.4121" ry="3.3127" fill="#ffa726"/>
    <rect transform="matrix(.40118 .916 -.97084 .23971 0 0)" x="-706.35" y="715.25" width="2.4659" height="92.34" ry="1.5493" fill="#ffe082"/>
    <rect transform="matrix(.039021 .99924 -.99976 .022009 0 0)" x="-496.51" y="872.12" width="2.5963" height="85.712" ry="1.4381" fill="#ffe082"/>
    <rect transform="matrix(.68963 .72416 -.88106 .47301 0 0)" x="-873.25" y="234.07" width="2.9155" height="95.108" ry="1.5958" fill="#ffe082"/>
    <rect transform="matrix(.43443 .9007 -.96496 .26238 0 0)" x="-707.88" y="783.51" width="2.7094" height="88.703" ry="1.4883" fill="#7cb342"/>
    <rect transform="matrix(.10422 .99455 -.99826 .058971 0 0)" x="-493.88" y="927.58" width="2.6016" height="85.299" ry="1.4312" fill="#7cb342"/>
    <ellipse cx="-1063.7" cy="-453.29" rx="4.4121" ry="3.3127" fill="#ffa726"/>
    <ellipse cx="-978.05" cy="-473.93" rx="4.4121" ry="3.3127" fill="#ffa726"/>
    <ellipse cx="-891.24" cy="-475.79" rx="4.4121" ry="3.3127" fill="#ffa726"/>
    <ellipse cx="-805.14" cy="-522.35" rx="4.4121" ry="3.3127" fill="#ffa726"/>
    <ellipse cx="-1063.3" cy="-430.89" rx="4.4121" ry="3.3127" fill="#558b2f"/>
    <ellipse cx="-977.91" cy="-436.19" rx="4.4121" ry="3.3127" fill="#558b2f"/>
    <rect transform="rotate(90)" x="-394.54" y="788.87" width="2.3486" height="362.91" ry="1.3066" fill="#bbdefb"/>
    <ellipse cx="-945.95" cy="-386.06" rx="4.5383" ry="3.8178" fill="#ffa726"/>
    <rect x="-938.93" y="-388.53" width="55.893" height="2.8571" ry="1.4286" fill="#fff"/>
    <rect x="-938.39" y="-384.6" width="43.393" height="2.8571" ry="1.4286" fill="#fff"/>
    <ellipse cx="-868.16" cy="-386.06" rx="4.5383" ry="3.8178" fill="#558b2f"/>
    <rect x="-861.15" y="-388.53" width="55.893" height="2.8571" ry="1.4286" fill="#fff"/>
    <rect x="-860.61" y="-384.6" width="43.393" height="2.8571" ry="1.4286" fill="#fff"/>
   </g>
   <path d="m-217-46.446 2.4007 7.9841-3.0185 1.5482-8.2701-0.39036z" fill="#fad59d"/>
   <path d="m-241.53-73.64c-0.33651-0.03106-0.45685-0.15538-0.79917-0.18289-7.019-0.56251-15.553-0.15926-22.487 6.0706 7.8224 6.0671 13.342 2.1716 20.415 2.2036-6.2821-0.50249-12.544 1.4552-18.762-2.0411 5.5299-5.0013 14.25-5.548 21.632-6.0501z" fill="#212121"/>
   <path d="m-241.87-73.728c4.699 1.4546 6.3734 4.187 7.1401 7.2541-1.3602-3.0994-3.5292-5.7769-8.335-7.0794z" fill="#212121"/>
   <path d="m-207.82-65.69c1.6676-3.0154 3.2855-6.0521 7.073-8.1613 6.232-0.5738 12.657 0.39591 18.609 6.5164-4.4626 3.8689-11.432 1.7652-17.981 1.8573 5.5444-0.77136 11.563 1.0601 16.747-1.6984-4.9184-5.7801-10.859-5.6235-16.694-6.086-4.0301 2.063-5.591 4.9133-7.7531 7.5719z" fill="#212121"/>
   <path d="m-207.22-89.339-6.4026 6.8265c8.1308-0.79748 16.232-1.7547 24.745-0.52468 6.6891 1.2727 12.093 4.2629 16.898 8.0529l-2.629-4.5322c-10.323-8.8205-21.502-8.9669-32.611-9.8226z" fill="#212121"/>
   <path d="m-301.94 24.096 39.446 33.793c-5.7074-42.872-60.797-149.36-16.735-128.64-25.771-21.408-15.228 62.973-22.71 94.845z" fill="#212121"/>
   <path d="m-277.8-68c2.5009 1.3492 3.6233 0.34524 4.6445-1.441 1.8873-1.787 3.6118-23.323 9.5492-37.194-11.278 9.5444-12.444 24.126-14.194 38.635z" fill="#212121"/>
   <rect transform="matrix(.97499 .22225 -.22225 .97499 0 0)" x="-339.39" y="214.94" width="34.569" height="10.036" ry="2.3052" fill="#fad59d"/>
   <rect transform="matrix(.97499 .22225 -.22225 .97499 0 0)" x="-335.21" y="225.82" width="34.569" height="10.036" ry="2.3052" fill="#fad59d"/>
   <rect transform="matrix(.97499 .22225 -.22225 .97499 0 0)" x="-331.86" y="236.69" width="34.569" height="10.036" ry="2.3052" fill="#fad59d"/>
   <rect transform="matrix(.97499 .22225 -.22225 .97499 0 0)" x="-328.51" y="247.84" width="34.569" height="10.036" ry="2.3052" fill="#fad59d"/>
   <rect transform="matrix(.97499 .22225 -.22225 .97499 0 0)" x="-316.67" y="217.03" width="11.848" height="6.6908" ry="1.5368" fill="#faa"/>
   <rect transform="matrix(.97499 .22225 -.22225 .97499 0 0)" x="-312.58" y="227.43" width="11.848" height="6.6908" ry="1.5368" fill="#faa"/>
   <rect transform="matrix(.97499 .22225 -.22225 .97499 0 0)" x="-309.2" y="238.48" width="11.848" height="6.6908" ry="1.5368" fill="#faa"/>
   <rect transform="matrix(.97499 .22225 -.22225 .97499 0 0)" x="-305.68" y="249.63" width="11.848" height="6.6908" ry="1.5368" fill="#faa"/>
   <rect transform="matrix(-.93732 .34847 .34847 .93732 0 0)" x="90.358" y="89.399" width="34.61" height="10.048" ry="2.3079" fill="#fad59d"/>
   <rect transform="matrix(-.93732 .34847 .34847 .93732 0 0)" x="94.545" y="100.28" width="34.61" height="10.048" ry="2.3079" fill="#fad59d"/>
   <rect transform="matrix(-.93732 .34847 .34847 .93732 0 0)" x="97.894" y="111.17" width="34.61" height="10.048" ry="2.3079" fill="#fad59d"/>
   <rect transform="matrix(-.93732 .34847 .34847 .93732 0 0)" x="101.24" y="122.33" width="34.61" height="10.048" ry="2.3079" fill="#fad59d"/>
   <rect transform="matrix(-.93732 .34847 .34847 .93732 0 0)" x="113.11" y="91.493" width="11.862" height="6.6987" ry="1.5386" fill="#faa"/>
   <rect transform="matrix(-.93732 .34847 .34847 .93732 0 0)" x="117.2" y="101.9" width="11.862" height="6.6987" ry="1.5386" fill="#faa"/>
   <rect transform="matrix(-.93732 .34847 .34847 .93732 0 0)" x="120.58" y="112.96" width="11.862" height="6.6987" ry="1.5386" fill="#faa"/>
   <rect transform="matrix(-.93732 .34847 .34847 .93732 0 0)" x="124.11" y="124.12" width="11.862" height="6.6987" ry="1.5386" fill="#faa"/>
   <path d="m-275.56-60.92c-2.9498-2.7599-8.3939-7.4717-11.837-5.5429-1.423 9.5891 1.7399 18.159 4.6973 26.775 2.0438 2.2919 6.3046 2.4361 8.5492 3.0063-1.19-3.9458-3.4212-7.6038-5.4489-12.589l3.3821-1.5032z" fill="#ffe0b2"/>
  </g>
 </g>
</svg>
